<svg width="512" height="512" viewBox="0 0 512 512" xmlns="http://www.w3.org/2000/svg">
  <defs>
    <radialGradient id="halo" cx="50%" cy="38%" r="60%">
      <stop offset="0%" stop-color="#1FD1B8" stop-opacity="0.35"/>
      <stop offset="100%" stop-color="#1FD1B8" stop-opacity="0"/>
    </radialGradient>
    <linearGradient id="accent" x1="0%" y1="0%" x2="0%" y2="100%">
      <stop offset="0%" stop-color="#3EE8CF"/>
      <stop offset="100%" stop-color="#149D90"/>
    </linearGradient>
  </defs>

  <rect width="512" height="512" rx="112" fill="#08080c"/>
  <circle cx="256" cy="195" r="190" fill="url(#halo)"/>

  <path d="M256 86
           L368 122
           V250
           C368 336 318 392 256 426
           C194 392 144 336 144 250
           V122
           Z"
        fill="none" stroke="url(#accent)" stroke-width="14" stroke-linejoin="round"/>

  <path d="M186 176 h32 v32 h32 v32 h-32 v32 h-32 v-32 h-32 v-32 h32 z" fill="#1FD1B8"/>
  <path d="M262 176 h32 v32 h32 v32 h-32 v32 h-32 v-32 h-32 v-32 h32 z" fill="#3EE8CF"/>

  <path d="M150 312 h44 l14 -34 l22 56 l16 -84 l18 62 h106"
        fill="none" stroke="#EAFBF8" stroke-width="10"
        stroke-linecap="round" stroke-linejoin="round"/>

  <text x="256" y="478" text-anchor="middle"
        font-family="Helvetica, Arial, sans-serif" font-weight="700"
        font-size="46" fill="#EAFBF8" letter-spacing="1">
    Identy-kit
  </text>
</svg>
